<svg xmlns="http://www.w3.org/2000/svg" xmlns:xlink="http://www.w3.org/1999/xlink" viewBox="0 0 24 24" width="24" height="24" preserveAspectRatio="xMidYMid meet" style="width: 100%; height: 100%; transform: translate3d(0px, 0px, 0px); content-visibility: visible;"><defs><clipPath id="__lottie_element_929"><rect width="24" height="24" x="0" y="0"></rect></clipPath><clipPath id="__lottie_element_931"><path d="M0,0 L600,0 L600,600 L0,600z"></path></clipPath><g id="__lottie_element_934"><g transform="matrix(22.5,0,0,22.5,300,300)" opacity="1" style="display: block;"><g opacity="1" transform="matrix(1,0,0,1,0,0)"><path fill="rgb(103, 102, 112)" fill-opacity="1" d=" M8,-3.5 C8,-2.671999931335449 7.328000068664551,-2 6.5,-2 C5.671999931335449,-2 5,-2.671999931335449 5,-3.5 C5,-4.328000068664551 5.671999931335449,-5 6.5,-5 C7.328000068664551,-5 8,-4.328000068664551 8,-3.5z"></path></g><g opacity="1" transform="matrix(1,0,0,1,0,0)"><path fill="rgb(103, 102, 112)" fill-opacity="1" d=" M3.5,1 C4.328000068664551,1 5,0.328000009059906 5,-0.5 C5,-1.3279999494552612 4.328000068664551,-2 3.5,-2 C2.671999931335449,-2 2,-1.3279999494552612 2,-0.5 C2,0.328000009059906 2.671999931335449,1 3.5,1z"></path></g><g opacity="1" transform="matrix(1,0,0,1,0,0)"><path fill="rgb(103, 102, 112)" fill-opacity="1" d=" M-7,-4 C-7,-4.552000045776367 -6.552000045776367,-5 -6,-5 C-5.447999954223633,-5 -5,-4.552000045776367 -5,-4 C-5,-4 -5,-3 -5,-3 C-5,-3 -4,-3 -4,-3 C-3.447999954223633,-3 -3,-2.552000045776367 -3,-2 C-3,-1.4479999542236328 -3.447999954223633,-1 -4,-1 C-4,-1 -5,-1 -5,-1 C-5,-1 -5,0 -5,0 C-5,0.5519999861717224 -5.447999954223633,1 -6,1 C-6.552000045776367,1 -7,0.5519999861717224 -7,0 C-7,0 -7,-1 -7,-1 C-7,-1 -8,-1 -8,-1 C-8.552000045776367,-1 -9,-1.4479999542236328 -9,-2 C-9,-2.552000045776367 -8.552000045776367,-3 -8,-3 C-8,-3 -7,-3 -7,-3 C-7,-3 -7,-4 -7,-4z"></path></g></g></g><filter id="__lottie_element_943" filterUnits="objectBoundingBox" x="0%" y="0%" width="100%" height="100%"><feComponentTransfer in="SourceGraphic"><feFuncA type="table" tableValues="1.0 0.0"></feFuncA></feComponentTransfer></filter><mask id="__lottie_element_934_2" mask-type="alpha"><g filter="url(#__lottie_element_943)"><rect width="600" height="600" x="0" y="0" fill="#ffffff" opacity="0"></rect><use xlink:href="#__lottie_element_934"></use></g></mask></defs><g clip-path="url(#__lottie_element_929)"><g clip-path="url(#__lottie_element_931)" transform="matrix(0.03999999910593033,0,0,0.03999999910593033,0,0)" opacity="1" style="display: block;"><g mask="url(#__lottie_element_934_2)" style="display: block;"><g transform="matrix(22.5,0,0,22.5,300,300)" opacity="1"><g opacity="1" transform="matrix(1,0,0,1,0,0)"><path fill="rgb(103, 102, 112)" fill-opacity="1" d=" M8.967000007629395,-6.936999797821045 C8.967000007629395,-6.760000228881836 9.050999641418457,-6.586999893188477 9.208999633789062,-6.506999969482422 C9.762999534606934,-6.2270002365112305 10.102999687194824,-5.695000171661377 10.246999740600586,-5.091000080108643 C10.543000221252441,-3.8480000495910645 11,-1.38100004196167 11,2 C11,2 11,6.910999774932861 11,6.910999774932861 C11,8.618000030517578 9.616999626159668,10 7.909999847412109,10 C6.739999771118164,10 5.669000148773193,9.33899974822998 5.145999908447266,8.291999816894531 C5.145999908447266,8.291999816894531 3.388000011444092,4.776000022888184 3.388000011444092,4.776000022888184 C3.1649999618530273,4.330999851226807 2.6480000019073486,4.114999771118164 2.1630001068115234,4.2270002365112305 C1.590999960899353,4.359000205993652 0.7960000038146973,4.5 0,4.5 C-0.7960000038146973,4.5 -1.590999960899353,4.359000205993652 -2.1630001068115234,4.2270002365112305 C-2.6480000019073486,4.114999771118164 -3.1649999618530273,4.330999851226807 -3.388000011444092,4.776000022888184 C-3.388000011444092,4.776000022888184 -5.145999908447266,8.291999816894531 -5.145999908447266,8.291999816894531 C-5.669000148773193,9.33899974822998 -6.739999771118164,10 -7.909999847412109,10 C-9.616999626159668,10 -11,8.618000030517578 -11,6.910999774932861 C-11,6.910999774932861 -11,2 -11,2 C-11,-1.38100004196167 -10.543000221252441,-3.8480000495910645 -10.246999740600586,-5.091000080108643 C-10.102999687194824,-5.695000171661377 -9.762999534606934,-6.2270002365112305 -9.208999633789062,-6.506999969482422 C-9.050999641418457,-6.586999893188477 -8.968000411987305,-6.760000228881836 -8.968000411987305,-6.936999797821045 C-8.968999862670898,-7.63100004196167 -8.484999656677246,-8.255000114440918 -7.7789998054504395,-8.404999732971191 C-7.7789998054504395,-8.404999732971191 -4.84499979019165,-9.029000282287598 -4.84499979019165,-9.029000282287598 C-4.335999965667725,-9.13700008392334 -3.8320000171661377,-8.972999572753906 -3.484999895095825,-8.635000228881836 C-3.128999948501587,-8.288000106811523 -2.7009999752044678,-7.919000148773193 -2.2049999237060547,-7.945000171661377 C-1.5260000228881836,-7.980000019073486 -0.7919999957084656,-8 0,-8 C0.7919999957084656,-8 1.5260000228881836,-7.980000019073486 2.2049999237060547,-7.945000171661377 C2.7009999752044678,-7.919000148773193 3.128999948501587,-8.288000106811523 3.484999895095825,-8.635000228881836 C3.8320000171661377,-8.972999572753906 4.335999965667725,-9.13700008392334 4.84499979019165,-9.029000282287598 C4.84499979019165,-9.029000282287598 7.7789998054504395,-8.404999732971191 7.7789998054504395,-8.404999732971191 C8.484999656677246,-8.255000114440918 8.968000411987305,-7.63100004196167 8.967000007629395,-6.936999797821045z"></path></g></g></g></g></g></svg>